<svg xmlns="http://www.w3.org/2000/svg" version="1.1" xmlns:xlink="http://www.w3.org/1999/xlink" xmlns:svgjs="http://svgjs.dev/svgjs" width="1500" height="518" viewBox="0 0 1500 518"><g transform="matrix(1,0,0,1,-0.9090909090909918,-0.19390070319752795)"><svg viewBox="0 0 396 137" data-background-color="#925626" preserveAspectRatio="xMidYMid meet" height="518" width="1500" xmlns="http://www.w3.org/2000/svg" xmlns:xlink="http://www.w3.org/1999/xlink"><g id="tight-bounds" transform="matrix(1,0,0,1,0.2400000000000091,0.051282618413239334)"><svg viewBox="0 0 395.52 136.8974347631735" height="136.8974347631735" width="395.52"><g><svg viewBox="0 0 706.2038209441089 244.43135999999998" height="136.8974347631735" width="395.52"><g transform="matrix(1,0,0,1,310.6838209441089,66.0876018013615)"><svg viewBox="0 0 395.52 112.256156397277" height="112.256156397277" width="395.52"><g id="textblocktransform"><svg viewBox="0 0 395.52 112.256156397277" height="112.256156397277" width="395.52" id="textblock"><g><svg viewBox="0 0 395.52 112.256156397277" height="112.256156397277" width="395.52"><g transform="matrix(1,0,0,1,0,0)"><svg width="395.52" viewBox="2.27 -40.3 143.20999999999998 40.65" height="112.256156397277" data-palette-color="#b4ddcf"><path d="M7.9-2.58L7.9 0.3Q5.03 0.08 3.75-1.45 2.48-2.98 2.4-6.15L2.4-6.15Q2.33-9.73 2.3-13.16 2.27-16.6 2.27-20 2.27-23.4 2.3-26.83 2.33-30.25 2.4-33.85L2.4-33.85Q2.48-37.02 3.75-38.55 5.03-40.08 7.9-40.3L7.9-40.3 7.9-37.43Q6.78-37.25 6.26-36.51 5.75-35.77 5.7-34.35L5.7-34.35Q5.6-30.8 5.56-27.24 5.53-23.68 5.53-20.11 5.53-16.55 5.58-12.94 5.63-9.33 5.7-5.65L5.7-5.65Q5.75-4.23 6.26-3.5 6.78-2.78 7.9-2.58L7.9-2.58ZM10.08 0.3L10.08 0.3 10.08-2.58Q11.2-2.78 11.71-3.5 12.23-4.23 12.25-5.65L12.25-5.65Q12.35-9.33 12.39-12.94 12.43-16.55 12.43-20.11 12.43-23.68 12.38-27.24 12.33-30.8 12.25-34.35L12.25-34.35Q12.23-35.77 11.71-36.49 11.2-37.2 10.08-37.43L10.08-37.43 10.08-40.3Q12.98-40.1 14.25-38.58 15.53-37.05 15.58-33.85L15.58-33.85Q15.65-30.25 15.68-26.81 15.7-23.38 15.7-19.99 15.7-16.6 15.68-13.16 15.65-9.73 15.58-6.15L15.58-6.15Q15.53-2.95 14.25-1.43 12.98 0.1 10.08 0.3ZM24.02 0L20.7 0 20.7-30 24.02-30 24.02 0ZM43.62 0L40.3 0 40.27-24.63Q40.25-26.3 39.65-27.03 39.05-27.75 37.72-27.75L37.72-27.75Q36.75-27.75 36.02-27.4L36.02-27.4 36.02-29.45Q36.57-29.88 37.28-30.11 38-30.35 38.87-30.35L38.87-30.35Q41.22-30.35 42.39-28.98 43.55-27.6 43.6-24.4L43.6-24.4 43.62 0ZM33.87 0L30.57 0 30.52-24.63Q30.5-26.3 29.91-27.03 29.32-27.75 27.97-27.75L27.97-27.75Q27.47-27.75 27.04-27.68 26.6-27.6 26.2-27.4L26.2-27.4 26.2-29.38Q26.75-29.85 27.45-30.1 28.15-30.35 29.15-30.35L29.15-30.35Q31.5-30.35 32.65-28.98 33.8-27.6 33.85-24.4L33.85-24.4 33.87 0ZM52.27 0L48.95 0 48.95-30 52.27-30 52.27 0ZM54.45-26.98L54.45-26.98 54.45-29.5Q55.3-30.08 56.77-30.08L56.77-30.08Q57.17-30.08 57.61-30.05 58.05-30.03 58.34-30.03L58.34-30.03 58.34-27.35 56.8-27.35Q55.37-27.35 54.45-26.98ZM66.14-36L60.89-36 60.89-40 66.14-40 66.14-36ZM65.17 0L61.87 0 61.87-30 65.17-30 65.17 0ZM84.22 0L80.74 0 77.09-15.28 75.72-15.28 75.72-18.28 76.72-18.28Q78.42-18.28 79.19-19.07 79.97-19.88 80.04-21.6L80.04-21.6Q80.12-23.58 80.14-25.61 80.17-27.65 80.14-29.68 80.12-31.7 80.04-33.68L80.04-33.68Q79.97-35.4 79.2-36.2 78.44-37 76.77-37L76.77-37 76.04-37 76.04-40 76.77-40Q80.17-40 81.69-38.5 83.22-37 83.34-33.52L83.34-33.52Q83.44-31.3 83.47-29.31 83.49-27.33 83.47-25.46 83.44-23.6 83.34-21.75L83.34-21.75Q83.19-17.07 80.19-15.9L80.19-15.9 84.22 0ZM73.84 0L70.54 0 70.54-40 73.84-40 73.84 0ZM87.51-5.75L87.51-5.75Q87.46-7.78 87.44-10.13 87.41-12.48 87.41-14.94 87.41-17.4 87.44-19.78 87.46-22.15 87.51-24.2L87.51-24.2Q87.66-27.2 88.91-28.64 90.16-30.08 92.84-30.28L92.84-30.28 92.84-27.6Q91.81-27.38 91.34-26.66 90.86-25.95 90.84-24.63L90.84-24.63Q90.79-21.95 90.76-19.61 90.74-17.28 90.74-15.05 90.74-12.83 90.76-10.49 90.79-8.15 90.84-5.45L90.84-5.45Q90.86-3.98 91.33-3.29 91.79-2.6 92.84-2.4L92.84-2.4 92.84 0.3Q90.09 0.08 88.86-1.35 87.64-2.78 87.51-5.75ZM95.04 0.3L95.04 0.3 95.04-2.4Q96.01-2.6 96.46-3.3 96.91-4 96.99-5.45L96.99-5.45Q97.04-6.4 97.03-7.6 97.01-8.8 96.94-10.3L96.94-10.3 100.19-10.3Q100.26-9.18 100.28-7.95 100.29-6.73 100.24-5.75L100.24-5.75Q100.09-2.78 98.91-1.34 97.74 0.1 95.04 0.3ZM100.19-14.3L92.59-14.3 92.59-16.78 96.99-16.78Q97.04-18.53 97.04-20.08 97.04-21.63 97.03-22.79 97.01-23.95 96.99-24.63L96.99-24.63Q96.89-25.95 96.44-26.66 95.99-27.38 95.04-27.6L95.04-27.6 95.04-30.3Q97.69-30.08 98.89-28.68 100.09-27.28 100.24-24.3L100.24-24.3Q100.26-23.55 100.29-22.05 100.31-20.55 100.3-18.57 100.29-16.6 100.19-14.3L100.19-14.3ZM104.24-5.75L104.24-5.75Q104.21-6.73 104.21-7.95 104.21-9.18 104.29-10.3L104.29-10.3 107.26-10.3Q107.21-8.83 107.21-7.63 107.21-6.43 107.24-5.45L107.24-5.45Q107.26-4 107.69-3.3 108.11-2.6 109.11-2.4L109.11-2.4 109.11 0.3Q106.51 0.08 105.42-1.35 104.34-2.78 104.24-5.75ZM111.29 0.3L111.29 0.3 111.29-2.38Q112.39-2.58 112.86-3.26 113.34-3.95 113.36-5.45L113.36-5.45Q113.39-6.18 113.4-6.74 113.41-7.3 113.42-7.85 113.44-8.4 113.41-9.05L113.41-9.05Q113.36-10.93 112.95-11.9 112.54-12.88 111.26-13.3L111.26-13.3 108.91-14.1Q107.19-14.68 106.16-15.54 105.14-16.4 104.7-17.79 104.26-19.18 104.19-21.38L104.19-21.38Q104.16-22.15 104.19-22.8 104.21-23.45 104.24-24.2L104.24-24.2Q104.26-27.2 105.37-28.64 106.49-30.08 109.31-30.3L109.31-30.3 109.31-27.6Q108.29-27.43 107.9-26.75 107.51-26.08 107.49-24.63L107.49-24.63Q107.46-23.75 107.44-23.13 107.41-22.5 107.44-21.6L107.44-21.6Q107.46-19.73 107.8-18.57 108.14-17.43 109.59-16.93L109.59-16.93 111.81-16.23Q114.21-15.5 115.37-13.94 116.54-12.38 116.54-9.2L116.54-9.2Q116.54-8.38 116.52-7.44 116.51-6.5 116.46-5.68L116.46-5.68Q116.39-2.73 115.22-1.31 114.06 0.1 111.29 0.3ZM116.29-19.78L113.24-19.78Q113.26-20.63 113.27-21.5 113.29-22.38 113.27-23.2 113.26-24.03 113.24-24.63L113.24-24.63Q113.21-26.05 112.82-26.74 112.44-27.43 111.49-27.6L111.49-27.6 111.49-30.3Q114.11-30.08 115.17-28.66 116.24-27.25 116.34-24.3L116.34-24.3Q116.34-23.68 116.34-22.91 116.34-22.15 116.34-21.34 116.34-20.53 116.29-19.78L116.29-19.78ZM121.48-27.35L119.43-27.35 119.43-30 121.48-30 121.48-38.5 124.81-38.5 124.81-5.43Q124.81-3.63 125.31-2.95 125.81-2.27 127.66-2.27L127.66-2.27Q128.36-2.27 128.81-2.31 129.26-2.35 129.83-2.45L129.83-2.45 129.83 0.1Q129.36 0.2 128.77 0.28 128.18 0.35 127.61 0.35L127.61 0.35Q124.11 0.35 122.8-1.07 121.48-2.5 121.48-5.75L121.48-5.75 121.48-27.35ZM129.33-27.35L126.63-27.35 126.63-30 129.33-30 129.33-27.35ZM132.38-6.15L132.38-6.15Q132.31-8.18 132.27-10.41 132.23-12.65 132.23-14.96 132.23-17.28 132.27-19.53 132.31-21.78 132.38-23.85L132.38-23.85Q132.51-27.05 133.71-28.56 134.91-30.08 137.76-30.3L137.76-30.3 137.76-27.6Q136.68-27.4 136.21-26.69 135.73-25.98 135.68-24.53L135.68-24.53Q135.61-21.88 135.57-19.55 135.53-17.23 135.53-14.99 135.53-12.75 135.57-10.43 135.61-8.1 135.68-5.45L135.68-5.45Q135.73-4.03 136.22-3.31 136.71-2.6 137.76-2.4L137.76-2.4 137.76 0.3Q134.91 0.08 133.71-1.44 132.51-2.95 132.38-6.15ZM139.96 0.3L139.96 0.3 139.96-2.4Q141.03-2.6 141.51-3.31 141.98-4.03 142.03-5.45L142.03-5.45Q142.11-8.13 142.16-10.45 142.21-12.78 142.21-15 142.21-17.23 142.16-19.55 142.11-21.88 142.03-24.53L142.03-24.53Q141.98-26 141.52-26.71 141.06-27.43 139.96-27.6L139.96-27.6 139.96-30.3Q141.88-30.15 143.03-29.43 144.18-28.7 144.72-27.34 145.26-25.98 145.36-23.85L145.36-23.85Q145.41-21.83 145.44-19.58 145.48-17.32 145.48-15.03 145.48-12.73 145.44-10.46 145.41-8.2 145.36-6.15L145.36-6.15Q145.26-4.03 144.72-2.65 144.18-1.28 143.03-0.56 141.88 0.15 139.96 0.3Z" opacity="1" transform="matrix(1,0,0,1,0,0)" fill="#b4ddcf" class="wordmark-text-0" data-fill-palette-color="primary" id="text-0"></path></svg></g></svg></g></svg></g></svg></g><g><svg viewBox="0 0 244.43135999999998 244.43135999999998" height="244.43135999999998" width="244.43135999999998"><g><svg viewBox="0 0 244.43135999999998 244.43135999999998" height="244.43135999999998" width="244.43135999999998"><g transform="matrix(1,0,0,1,64.60265593644992,64.76058998299763)"><svg viewBox="0 0 115.22604812710014 114.91018003400472" height="114.91018003400472" width="115.22604812710014"><g><svg xmlns="http://www.w3.org/2000/svg" xmlns:xlink="http://www.w3.org/1999/xlink" version="1.1" x="0" y="0" viewBox="10.603 10.71 78.795 78.57900000000001" enable-background="new 0 0 100 100" xml:space="preserve" height="114.91018003400472" width="115.22604812710014" class="icon-cg-0" data-fill-palette-color="accent" id="cg-0"><path d="M79.236 48.382l0.658-0.06c-0.788-8.699-8.871-15.436-18.464-15.436-0.087 0-0.174 0-0.262 0.001-4.615 0.071-8.927 1.653-12.273 4.446-2.482-1.072-5.251-1.667-8.155-1.635-3.933 0.053-7.573 1.193-10.561 3.13L23.373 10.71l-2.916 0.706 7.131 29.46c-1.294 1.228-2.397 2.632-3.239 4.194L13.462 21.673l-2.72 1.266 11.839 25.443H10.603v1.5c0 21.729 17.671 39.407 39.393 39.407 21.727 0 39.402-17.678 39.402-39.407v-1.5H79.236zM61.212 35.888c0.074-0.001 0.148-0.001 0.224-0.001 7.967 0 14.678 5.438 15.44 12.495H58.938c-1.092-3.894-3.678-7.224-7.151-9.494C54.453 37.003 57.726 35.942 61.212 35.888zM40.779 38.7c6.995-0.095 13.013 3.982 15.02 9.683H26.172C28.171 42.781 34.059 38.791 40.779 38.7zM49.995 86.29c-19.565 0-35.573-15.524-36.362-34.907h42.836c0.001 0.004 0.002 0.008 0.002 0.012l0.13-0.012h29.767C85.578 70.765 69.564 86.29 49.995 86.29z" fill="#b4ddcf" data-fill-palette-color="accent"></path></svg></g></svg></g><g id="text-0"><path d="M33.002 95.703l2.202 0.69c-0.575 1.439-1.355 2.361-2.34 2.765-0.987 0.411-2.299 0.38-3.936-0.091v0c-1.839-0.535-3.64-1.071-5.402-1.609-1.762-0.538-3.516-1.081-5.262-1.627-1.739-0.545-3.483-1.098-5.231-1.659-1.748-0.561-3.539-1.15-5.374-1.767v0c-1.608-0.545-2.7-1.268-3.275-2.167-0.578-0.894-0.696-2.097-0.354-3.609v0l2.212 0.692c-0.093 0.607 0.009 1.099 0.305 1.477 0.295 0.383 0.804 0.702 1.528 0.956v0c1.799 0.619 3.609 1.224 5.431 1.815 1.815 0.589 3.634 1.169 5.455 1.74 1.828 0.572 3.668 1.135 5.522 1.688 1.861 0.555 3.736 1.108 5.626 1.658v0c0.739 0.204 1.336 0.232 1.79 0.084 0.453-0.142 0.82-0.487 1.103-1.036zM35.725 94.73v0l-2.202-0.69c0.081-0.611-0.024-1.104-0.315-1.48-0.289-0.381-0.797-0.692-1.524-0.934v0c-1.862-0.639-3.717-1.258-5.563-1.856-1.84-0.597-3.674-1.182-5.502-1.755-1.821-0.57-3.646-1.128-5.476-1.673-1.835-0.547-3.666-1.086-5.493-1.617v0c-0.735-0.216-1.327-0.249-1.775-0.099-0.446 0.144-0.817 0.488-1.112 1.032v0l-2.212-0.693c0.573-1.454 1.353-2.386 2.339-2.796 0.978-0.406 2.291-0.365 3.937 0.122v0c1.858 0.541 3.668 1.08 5.431 1.618 1.762 0.538 3.51 1.079 5.243 1.621 1.739 0.545 3.486 1.099 5.24 1.663 1.754 0.563 3.539 1.15 5.355 1.76v0c1.631 0.538 2.735 1.255 3.313 2.148 0.576 0.9 0.682 2.11 0.316 3.629z" fill="#b4ddcf" data-fill-palette-color="accent"></path><path d="M47.763 71.279l-1.651 2.105-18.993-14.899 1.651-2.105zM57.502 58.864l-1.657 2.112-15.599-12.211c-0.715-0.544-1.323-0.811-1.826-0.803-0.506 0.014-0.979 0.302-1.42 0.863v0c-0.322 0.41-0.53 0.826-0.625 1.247v0l-1.294-1.015c0.002-0.376 0.071-0.754 0.209-1.133 0.138-0.379 0.351-0.753 0.641-1.122v0c0.778-0.992 1.648-1.507 2.607-1.542 0.965-0.032 2.131 0.472 3.499 1.51v0zM52.66 65.037l-1.645 2.096-15.611-12.196c-0.715-0.544-1.321-0.814-1.82-0.81-0.502 0.009-0.977 0.299-1.426 0.87v0c-0.163 0.208-0.302 0.417-0.417 0.629-0.111 0.206-0.193 0.428-0.245 0.665v0l-1.247-0.978c-0.019-0.393 0.035-0.778 0.164-1.156 0.128-0.378 0.358-0.777 0.688-1.198v0c0.778-0.992 1.646-1.504 2.601-1.534 0.961-0.027 2.127 0.477 3.499 1.51v0z" fill="#b4ddcf" data-fill-palette-color="accent"></path><path d="M75.364 45.4l-2.276 1.404-12.681-20.54 2.276-1.405zM65.455 26.011v0l-1.067-1.728c0.225-0.503 0.674-0.963 1.349-1.379v0c0.18-0.111 0.374-0.223 0.583-0.337 0.209-0.114 0.381-0.212 0.516-0.295v0l1.13 1.829-1.062 0.655c-0.652 0.402-1.135 0.821-1.449 1.255z" fill="#b4ddcf" data-fill-palette-color="accent"></path><path d="M92.649 6.953l-4.062 1.179-0.897-3.092 4.062-1.179zM99.963 34.989l-2.55 0.74-6.729-23.183 2.549-0.74z" fill="#b4ddcf" data-fill-palette-color="accent"></path><path d="M131.284 32.233l-2.794-0.013-2.885-12.306-1.1-0.005 0.011-2.407 0.803 0.004c0.911 0.004 1.576-0.207 1.994-0.635 0.418-0.427 0.649-1.106 0.693-2.037v0c0.044-1.056 0.076-2.129 0.094-3.219 0.018-1.096 0.023-2.186 0.015-3.269-0.008-1.09-0.03-2.163-0.065-3.219v0c-0.035-0.925-0.257-1.603-0.664-2.034-0.407-0.431-1.06-0.649-1.958-0.653v0l-0.585-0.003 0.011-2.417 0.585 0.003c1.823 0.008 3.141 0.417 3.956 1.227 0.815 0.809 1.251 2.145 1.309 4.008v0c0.047 1.195 0.075 2.325 0.084 3.388 0.008 1.063 0.004 2.097-0.014 3.1-0.018 0.997-0.055 1.991-0.113 2.981v0c-0.091 2.509-0.943 4.073-2.558 4.694v0zM122.933 32.195l-2.654-0.012 0.148-32.183 2.654 0.012z" fill="#b4ddcf" data-fill-palette-color="accent"></path><path d="M150.89 31.507v0c0.319-1.042 0.671-2.16 1.056-3.355 0.386-1.201 0.788-2.428 1.205-3.68 0.418-1.253 0.834-2.482 1.25-3.687 0.415-1.205 0.81-2.326 1.184-3.365v0c0.583-1.497 1.315-2.506 2.198-3.026 0.877-0.522 2.012-0.607 3.405-0.254v0l-0.679 2.04c-0.558-0.061-1.016 0.051-1.375 0.335-0.365 0.282-0.667 0.759-0.906 1.432v0c-0.478 1.351-0.922 2.62-1.331 3.805-0.409 1.186-0.803 2.346-1.18 3.481-0.376 1.128-0.756 2.289-1.14 3.483-0.384 1.195-0.792 2.482-1.225 3.862v0c-0.238 0.756-0.296 1.349-0.175 1.779 0.115 0.428 0.422 0.781 0.921 1.059v0l-0.686 2.058c-1.359-0.578-2.228-1.334-2.606-2.268-0.386-0.929-0.358-2.162 0.084-3.699zM155.094 38.035v0l0.686-2.058c0.528 0.065 0.968-0.043 1.319-0.323 0.345-0.282 0.662-0.785 0.952-1.51v0c0.186-0.474 0.377-1.016 0.573-1.626 0.198-0.616 0.403-1.314 0.614-2.092v0l2.481 0.827c-0.148 0.591-0.323 1.198-0.523 1.82-0.203 0.629-0.399 1.186-0.589 1.672v0c-0.587 1.489-1.299 2.498-2.136 3.026-0.846 0.533-1.971 0.62-3.377 0.264zM162.737 28.199l-5.799-1.933 0.63-1.889 3.364 1.122c0.322-0.881 0.614-1.717 0.877-2.506 0.263-0.789 0.49-1.48 0.68-2.071 0.19-0.591 0.336-1.061 0.438-1.41v0c0.169-0.695 0.201-1.262 0.097-1.7-0.111-0.441-0.388-0.798-0.833-1.072v0l0.686-2.058c1.309 0.562 2.152 1.302 2.528 2.221 0.372 0.91 0.346 2.137-0.078 3.681v0c-0.115 0.386-0.293 0.964-0.536 1.732-0.242 0.768-0.533 1.653-0.874 2.653-0.342 1.007-0.736 2.083-1.18 3.23z" fill="#b4ddcf" data-fill-palette-color="accent"></path><path d="M178.546 44.707v0c0.3-0.427 0.647-0.905 1.041-1.436 0.39-0.525 0.781-1.02 1.175-1.484v0l1.925 1.428c-0.493 0.621-0.933 1.191-1.319 1.711-0.382 0.514-0.723 0.985-1.023 1.412v0c-0.454 0.634-0.7 1.17-0.738 1.61-0.044 0.436 0.117 0.856 0.484 1.26v0l-1.293 1.742c-1.048-0.926-1.577-1.869-1.587-2.831-0.014-0.956 0.431-2.094 1.335-3.412zM180.206 51.995v0l1.281-1.727c0.535 0.265 1.016 0.326 1.443 0.183 0.427-0.144 0.886-0.535 1.377-1.174v0c0.243-0.305 0.455-0.575 0.638-0.809 0.186-0.24 0.371-0.477 0.553-0.712 0.178-0.229 0.367-0.489 0.564-0.778v0c0.577-0.822 0.933-1.512 1.067-2.07 0.136-0.549-0.005-1.118-0.422-1.707v0l-1.136-1.645c-0.557-0.8-0.919-1.549-1.083-2.247-0.165-0.698-0.12-1.417 0.133-2.158 0.254-0.741 0.715-1.595 1.384-2.562v0c0.237-0.342 0.466-0.65 0.684-0.923 0.219-0.273 0.454-0.568 0.705-0.883v0c0.967-1.281 1.922-2.052 2.865-2.315 0.938-0.266 2.052 0.005 3.342 0.815v0l-1.292 1.742c-0.501-0.256-0.941-0.3-1.322-0.13-0.386 0.166-0.817 0.558-1.292 1.175v0c-0.29 0.369-0.541 0.684-0.752 0.947-0.207 0.257-0.449 0.583-0.726 0.979v0c-0.591 0.819-0.996 1.531-1.213 2.134-0.227 0.605-0.106 1.245 0.362 1.921v0l1.103 1.522c0.802 1.08 1.202 2.142 1.201 3.186 0.004 1.047-0.502 2.255-1.516 3.623v0c-0.264 0.355-0.55 0.731-0.86 1.126-0.304 0.399-0.599 0.768-0.884 1.108v0c-0.976 1.249-1.938 1.991-2.885 2.225-0.956 0.236-2.063-0.046-3.319-0.846zM193.057 41.425l-1.973-1.464c0.282-0.358 0.566-0.723 0.85-1.096 0.29-0.369 0.563-0.737 0.821-1.106 0.258-0.359 0.477-0.67 0.655-0.932v0c0.446-0.623 0.697-1.144 0.753-1.563 0.051-0.423-0.101-0.823-0.454-1.2v0l1.292-1.742c1.064 0.938 1.598 1.88 1.602 2.828 0.004 0.948-0.444 2.072-1.342 3.371v0c-0.201 0.27-0.423 0.57-0.667 0.899-0.244 0.329-0.496 0.668-0.756 1.018-0.26 0.35-0.52 0.679-0.781 0.987z" fill="#b4ddcf" data-fill-palette-color="accent"></path><path d="M215.1 56.055l-0.973-1.338 1.723-1.253 0.973 1.338 5.527-4.02 1.573 2.163-21.516 15.65c-0.785 0.571-1.242 1.071-1.372 1.499-0.138 0.427 0.084 1.041 0.667 1.843v0c0.221 0.304 0.412 0.55 0.572 0.735 0.156 0.181 0.346 0.381 0.571 0.601v0l-1.658 1.206c-0.19-0.172-0.395-0.374-0.613-0.607-0.218-0.233-0.419-0.475-0.602-0.726v0c-1.103-1.517-1.555-2.784-1.357-3.802 0.208-1.017 1.017-2.038 2.427-3.064v0zM218.812 61.158l-1.276-1.755 1.722-1.252 1.276 1.754z" fill="#b4ddcf" data-fill-palette-color="accent"></path><path d="M214.173 89.05v0c1.007-0.4 2.074-0.81 3.2-1.232 1.126-0.421 2.271-0.838 3.434-1.252 1.17-0.416 2.327-0.817 3.472-1.202 1.145-0.386 2.247-0.746 3.306-1.08v0c1.64-0.513 2.951-0.6 3.933-0.263 0.98 0.332 1.782 1.199 2.408 2.604v0l-2.044 0.726c-0.294-0.512-0.664-0.822-1.109-0.931-0.447-0.114-1.042-0.054-1.785 0.183v0c-1.351 0.438-2.618 0.857-3.801 1.256-1.183 0.399-2.34 0.8-3.473 1.202-1.126 0.4-2.274 0.819-3.443 1.255-1.169 0.437-2.416 0.911-3.741 1.424v0c-0.713 0.281-1.206 0.611-1.478 0.988-0.275 0.371-0.367 0.842-0.276 1.412v0l-2.044 0.727c-0.401-1.483-0.326-2.663 0.224-3.539 0.549-0.882 1.621-1.641 3.217-2.278zM211.322 96.528v0l2.044-0.726c0.294 0.512 0.664 0.822 1.109 0.93 0.447 0.114 1.036 0.056 1.766-0.175v0c1.364-0.443 2.638-0.86 3.823-1.254 1.185-0.393 2.337-0.789 3.457-1.186 1.126-0.4 2.273-0.822 3.441-1.265 1.167-0.443 2.413-0.921 3.737-1.433v0c0.738-0.29 1.245-0.618 1.522-0.983 0.279-0.358 0.363-0.833 0.251-1.424v0l2.044-0.726c0.272 1.003 0.328 1.86 0.167 2.569-0.161 0.709-0.536 1.322-1.123 1.839-0.593 0.519-1.419 0.995-2.479 1.427v0c-1.012 0.388-2.083 0.793-3.215 1.217-1.132 0.423-2.28 0.842-3.444 1.255-1.157 0.411-2.312 0.811-3.463 1.199-1.152 0.388-2.248 0.753-3.29 1.096v0c-1.094 0.333-2.038 0.486-2.833 0.459-0.788-0.028-1.465-0.268-2.031-0.718-0.567-0.45-1.061-1.151-1.483-2.101z" fill="#b4ddcf" data-fill-palette-color="accent"></path><path d="M13.868 162.732l-2.231 0.699c-0.347-1.525-0.229-2.738 0.353-3.64 0.582-0.902 1.682-1.632 3.301-2.188v0c1.834-0.617 3.635-1.209 5.401-1.777 1.773-0.57 3.535-1.13 5.287-1.679 1.752-0.549 3.515-1.096 5.289-1.639 1.768-0.541 3.588-1.084 5.458-1.629v0c1.646-0.468 2.965-0.498 3.959-0.089 0.993 0.408 1.783 1.337 2.369 2.786v0l-2.231 0.7c-0.27-0.552-0.636-0.901-1.096-1.047-0.467-0.144-1.07-0.114-1.81 0.09v0c-1.851 0.518-3.7 1.057-5.545 1.615-1.839 0.556-3.679 1.123-5.519 1.7-1.834 0.575-3.679 1.168-5.537 1.778-1.857 0.61-3.727 1.235-5.609 1.874v0c-0.723 0.254-1.232 0.573-1.527 0.957-0.289 0.381-0.393 0.878-0.312 1.489zM12.165 165.114v0l2.231-0.7c0.283 0.548 0.651 0.896 1.106 1.044 0.461 0.146 1.059 0.111 1.794-0.106v0c1.912-0.545 3.804-1.1 5.675-1.666 1.871-0.566 3.723-1.137 5.557-1.712 1.84-0.577 3.673-1.166 5.498-1.766 1.832-0.602 3.659-1.21 5.48-1.823v0c0.727-0.242 1.235-0.553 1.524-0.935 0.282-0.379 0.389-0.877 0.321-1.491v0l2.23-0.7c0.361 1.527 0.251 2.742-0.331 3.644-0.574 0.907-1.682 1.632-3.325 2.174v0c-1.847 0.621-3.654 1.215-5.42 1.784-1.773 0.57-3.532 1.129-5.277 1.676-1.745 0.547-3.508 1.094-5.29 1.638-1.774 0.543-3.591 1.085-5.448 1.626v0c-1.659 0.493-2.983 0.531-3.972 0.115-0.993-0.408-1.778-1.342-2.353-2.802z" fill="#b4ddcf" data-fill-palette-color="accent"></path><path d="M28.727 196.093l-1.664-2.119 19.133-15.026 1.664 2.119zM38.541 208.589l-1.664-2.119 15.692-12.35c0.703-0.569 1.108-1.101 1.215-1.597 0.107-0.495-0.06-1.023-0.501-1.584v0c-0.326-0.415-0.685-0.722-1.074-0.919v0l1.301-1.022c0.365 0.091 0.72 0.249 1.064 0.474 0.335 0.224 0.65 0.523 0.944 0.896v0c0.783 0.997 1.078 1.971 0.883 2.921-0.199 0.954-0.971 1.976-2.315 3.066v0zM33.659 202.372l-1.652-2.103 15.68-12.366c0.703-0.569 1.11-1.099 1.221-1.588 0.111-0.49-0.058-1.021-0.507-1.592v0c-0.167-0.213-0.34-0.401-0.518-0.563-0.178-0.162-0.376-0.297-0.593-0.403v0l1.254-0.985c0.386 0.075 0.752 0.22 1.097 0.435 0.336 0.214 0.672 0.535 1.007 0.96v0c0.783 0.997 1.076 1.968 0.877 2.914-0.203 0.949-0.977 1.968-2.322 3.057v0z" fill="#b4ddcf" data-fill-palette-color="accent"></path><path d="M62.726 227.658l-2.294-1.414 12.764-20.71 2.293 1.413zM75.702 209.964v0l1.075-1.746c0.556-0.022 1.175 0.177 1.855 0.596v0c0.18 0.111 0.368 0.234 0.563 0.37 0.195 0.136 0.361 0.246 0.496 0.329v0l-1.138 1.847-1.063-0.655c-0.658-0.405-1.254-0.653-1.788-0.741z" fill="#b4ddcf" data-fill-palette-color="accent"></path><path d="M102.16 212.867l-4.091-1.186 0.902-3.111 4.091 1.186zM93.271 240.684l-2.569-0.745 6.774-23.366 2.569 0.745z" fill="#b4ddcf" data-fill-palette-color="accent"></path><path d="M131.456 244.38l-2.813 0.013-3.019-12.368-1.119 0.005-0.012-2.436 0.813-0.004c0.918-0.004 1.587-0.222 2.007-0.653 0.414-0.438 0.639-1.122 0.674-2.054v0c0.041-1.07 0.066-2.153 0.075-3.249 0.008-1.103 0.003-2.202-0.016-3.299-0.018-1.096-0.053-2.176-0.104-3.238v0c-0.044-0.931-0.272-1.613-0.683-2.048-0.411-0.427-1.073-0.639-1.984-0.634v0l-0.584 0.002-0.011-2.436 0.584-0.003c1.842-0.009 3.178 0.391 4.007 1.2 0.823 0.808 1.275 2.15 1.356 4.025v0c0.058 1.202 0.097 2.341 0.115 3.417 0.018 1.07 0.023 2.11 0.014 3.12-0.009 1.004-0.037 2.008-0.085 3.012v0c-0.074 2.523-0.919 4.108-2.533 4.756v0zM123.046 244.419l-2.674 0.012-0.15-32.43 2.675-0.012z" fill="#b4ddcf" data-fill-palette-color="accent"></path><path d="M155.578 235.061v0c-0.369-1.025-0.762-2.141-1.177-3.346-0.413-1.199-0.831-2.431-1.253-3.696-0.42-1.259-0.827-2.502-1.221-3.728-0.392-1.22-0.751-2.36-1.077-3.42v0c-0.43-1.562-0.449-2.819-0.056-3.772 0.393-0.952 1.258-1.707 2.597-2.264v0l0.686 2.058c-0.489 0.288-0.794 0.658-0.915 1.109-0.117 0.443-0.072 1.005 0.134 1.688v0c0.432 1.38 0.842 2.674 1.231 3.881 0.386 1.201 0.769 2.371 1.149 3.512 0.38 1.14 0.777 2.31 1.19 3.508 0.411 1.192 0.86 2.477 1.346 3.853v0c0.271 0.752 0.581 1.265 0.931 1.538 0.355 0.272 0.82 0.371 1.393 0.298v0l0.692 2.077c-1.449 0.351-2.608 0.267-3.477-0.251-0.871-0.524-1.595-1.539-2.173-3.045zM162.92 237.793v0l-0.692-2.077c0.466-0.274 0.755-0.627 0.868-1.061 0.113-0.434 0.064-1.031-0.147-1.789v0c-0.138-0.497-0.312-1.051-0.523-1.663-0.211-0.612-0.463-1.297-0.758-2.055v0l2.5-0.833c0.23 0.564 0.452 1.158 0.667 1.782 0.217 0.631 0.396 1.198 0.535 1.701v0c0.434 1.554 0.471 2.801 0.109 3.743-0.357 0.933-1.21 1.684-2.559 2.252zM163.144 225.242l-5.845 1.947-0.636-1.907 3.383-1.128c-0.273-0.904-0.543-1.754-0.808-2.549-0.265-0.796-0.5-1.49-0.704-2.084-0.205-0.593-0.372-1.063-0.501-1.409v0c-0.276-0.66-0.59-1.133-0.943-1.419-0.355-0.292-0.796-0.414-1.322-0.364v0l-0.692-2.077c1.397-0.34 2.523-0.252 3.377 0.264 0.86 0.514 1.582 1.519 2.164 3.017v0c0.14 0.378 0.344 0.95 0.614 1.716 0.269 0.766 0.57 1.658 0.902 2.675 0.33 1.011 0.667 2.117 1.011 3.318z" fill="#b4ddcf" data-fill-palette-color="accent"></path><path d="M187.418 219.696v0c-0.321-0.411-0.681-0.885-1.078-1.42-0.393-0.53-0.755-1.051-1.086-1.563v0l1.934-1.434c0.455 0.658 0.875 1.246 1.26 1.766 0.386 0.52 0.741 0.988 1.066 1.404v0c0.479 0.623 0.923 1.017 1.333 1.182 0.41 0.165 0.866 0.131 1.368-0.102v0l1.304 1.759c-1.204 0.737-2.271 0.973-3.199 0.708-0.932-0.27-1.9-1.037-2.902-2.3zM194.935 220.237v0l-1.292-1.742c0.41-0.444 0.609-0.892 0.595-1.342-0.019-0.447-0.265-1-0.738-1.66v0c-0.216-0.325-0.412-0.611-0.587-0.859-0.18-0.253-0.355-0.501-0.527-0.744-0.172-0.243-0.367-0.501-0.587-0.774v0c-0.628-0.792-1.188-1.335-1.677-1.629-0.495-0.291-1.087-0.324-1.776-0.101v0l-1.919 0.622c-0.933 0.305-1.762 0.435-2.487 0.389-0.721-0.041-1.401-0.293-2.04-0.756-0.63-0.462-1.317-1.161-2.061-2.097v0c-0.264-0.322-0.492-0.63-0.685-0.923-0.198-0.289-0.413-0.602-0.647-0.938v0c-0.953-1.307-1.421-2.453-1.402-3.437 0.018-0.984 0.605-1.978 1.759-2.982v0l1.305 1.758c-0.39 0.405-0.56 0.819-0.51 1.241 0.052 0.414 0.305 0.937 0.758 1.571v0c0.273 0.39 0.504 0.724 0.694 1.003 0.185 0.282 0.431 0.614 0.738 0.994v0c0.616 0.809 1.181 1.41 1.694 1.802 0.518 0.388 1.174 0.457 1.966 0.207v0l1.784-0.621c1.272-0.458 2.411-0.535 3.419-0.229 1.007 0.305 2.023 1.147 3.045 2.526v0c0.268 0.361 0.548 0.745 0.842 1.152 0.298 0.412 0.57 0.807 0.816 1.183v0c0.916 1.302 1.351 2.447 1.303 3.436-0.051 0.984-0.646 1.967-1.783 2.95zM188.488 204.744l-1.989 1.475c-0.261-0.374-0.53-0.754-0.808-1.139-0.274-0.381-0.547-0.749-0.82-1.106-0.269-0.351-0.507-0.656-0.715-0.913v0c-0.467-0.607-0.895-0.997-1.285-1.168-0.389-0.18-0.817-0.154-1.286 0.079v0l-1.304-1.759c1.211-0.75 2.276-0.989 3.193-0.716 0.918 0.273 1.872 1.033 2.862 2.28v0c0.201 0.271 0.425 0.573 0.673 0.907 0.244 0.329 0.498 0.671 0.761 1.026 0.26 0.35 0.499 0.695 0.718 1.034z" fill="#b4ddcf" data-fill-palette-color="accent"></path><path d="M198.932 184.628l-0.98 1.345-1.737-1.265 0.979-1.345-5.566-4.052 1.586-2.178 21.678 15.78c0.785 0.571 1.406 0.856 1.865 0.855 0.453-0.005 0.973-0.411 1.56-1.217v0c0.225-0.31 0.4-0.566 0.524-0.77 0.128-0.209 0.259-0.457 0.393-0.743v0l1.674 1.219c-0.109 0.239-0.238 0.501-0.387 0.784-0.155 0.28-0.323 0.545-0.506 0.796v0c-1.111 1.527-2.189 2.351-3.233 2.473-1.04 0.117-2.271-0.342-3.691-1.376v0zM202.674 179.486l-1.288 1.77-1.738-1.265 1.288-1.77z" fill="#b4ddcf" data-fill-palette-color="accent"></path><path d="M227.603 168.222v0c-1.046-0.33-2.142-0.689-3.287-1.076-1.145-0.387-2.309-0.791-3.49-1.211-1.176-0.419-2.333-0.841-3.471-1.268-1.138-0.426-2.229-0.846-3.273-1.26v0c-1.606-0.649-2.685-1.415-3.24-2.3-0.554-0.884-0.629-2.071-0.225-3.56v0l2.062 0.734c-0.095 0.583-0.002 1.058 0.281 1.425 0.274 0.371 0.777 0.701 1.509 0.989v0c1.334 0.524 2.589 1.006 3.765 1.446 1.175 0.44 2.332 0.862 3.47 1.267 1.138 0.405 2.305 0.81 3.5 1.215 1.189 0.402 2.466 0.822 3.831 1.259v0c0.737 0.234 1.33 0.291 1.78 0.171 0.447-0.114 0.819-0.42 1.115-0.917v0l2.062 0.734c-0.634 1.407-1.446 2.279-2.434 2.614-0.982 0.337-2.301 0.25-3.955-0.262zM234.59 164.191v0l-2.062-0.735c0.089-0.585-0.003-1.063-0.278-1.434-0.274-0.371-0.771-0.699-1.49-0.983v0c-1.349-0.522-2.609-1.01-3.78-1.461-1.179-0.448-2.335-0.874-3.467-1.277-1.132-0.403-2.294-0.803-3.485-1.199-1.193-0.39-2.471-0.806-3.835-1.25v0c-0.762-0.243-1.365-0.311-1.809-0.203-0.451 0.106-0.82 0.423-1.107 0.952v0l-2.062-0.734c0.425-0.956 0.928-1.66 1.509-2.112 0.575-0.454 1.257-0.695 2.045-0.723 0.794-0.026 1.741 0.129 2.841 0.465v0c1.044 0.337 2.141 0.699 3.293 1.088 1.151 0.389 2.312 0.792 3.481 1.208 1.17 0.416 2.33 0.84 3.48 1.271 1.144 0.428 2.233 0.844 3.268 1.248v0c1.065 0.435 1.897 0.914 2.496 1.435 0.606 0.524 0.985 1.143 1.137 1.856 0.153 0.713 0.094 1.576-0.175 2.588z" fill="#b4ddcf" data-fill-palette-color="accent"></path><path d="M5.865 126.193c0-6.842 5.546-12.388 12.388-12.389 6.842 0 12.388 5.546 12.389 12.389 0 6.842-5.546 12.388-12.389 12.388-6.842 0-12.388-5.546-12.388-12.388z" fill="#b4ddcf" data-fill-palette-color="accent"></path><path d="M215.816 126.193c0-6.842 5.546-12.388 12.388-12.389 6.842 0 12.388 5.546 12.389 12.389 0 6.842-5.546 12.388-12.389 12.388-6.842 0-12.388-5.546-12.388-12.388z" fill="#b4ddcf" data-fill-palette-color="accent"></path></g><g id="text-1"></g></svg></g></svg></g></svg></g><defs></defs></svg><rect width="395.52" height="136.8974347631735" fill="none" stroke="none" visibility="hidden"></rect></g></svg></g></svg>